<mxfile host="app.diagrams.net" modified="2021-03-31T01:24:00.292Z" agent="5.0 (X11)" etag="BuWHRaLF46mqilKW-sGg" version="14.5.3" type="github">
  <diagram name="Page-1" id="822b0af5-4adb-64df-f703-e8dfc1f81529">
    <mxGraphModel dx="2062" dy="1066" grid="1" gridSize="10" guides="1" tooltips="1" connect="1" arrows="1" fold="1" page="1" pageScale="1" pageWidth="1100" pageHeight="850" background="#ffffff" math="0" shadow="0">
      <root>
        <mxCell id="0" />
        <mxCell id="1" parent="0" />
        <mxCell id="7d933b09d9755ecc-5" value="" style="verticalLabelPosition=bottom;aspect=fixed;html=1;verticalAlign=top;strokeColor=none;shape=mxgraph.citrix.file_server;rounded=0;shadow=0;comic=0;fontFamily=Verdana;" parent="1" vertex="1">
          <mxGeometry x="1059.5" y="432" width="71" height="97" as="geometry" />
        </mxCell>
        <mxCell id="7d933b09d9755ecc-15" value="" style="ellipse;whiteSpace=wrap;html=1;rounded=0;shadow=0;comic=0;strokeWidth=1;fontFamily=Verdana;" parent="1" vertex="1">
          <mxGeometry x="985" y="584" width="220" height="140" as="geometry" />
        </mxCell>
        <mxCell id="7d933b09d9755ecc-16" value="&lt;b&gt;You&lt;/b&gt;" style="verticalLabelPosition=bottom;aspect=fixed;html=1;verticalAlign=top;strokeColor=none;shape=mxgraph.citrix.users;rounded=0;shadow=0;comic=0;fontFamily=Verdana;" parent="1" vertex="1">
          <mxGeometry x="1066" y="620" width="64.5" height="55" as="geometry" />
        </mxCell>
        <mxCell id="7d933b09d9755ecc-24" style="edgeStyle=none;rounded=0;html=1;labelBackgroundColor=none;startArrow=none;startFill=0;endArrow=block;endFill=1;strokeColor=#0000FF;strokeWidth=1;fontFamily=Verdana;fontSize=12;fontColor=#000000;exitX=0.5;exitY=0;exitDx=0;exitDy=0;" parent="1" source="7d933b09d9755ecc-15" target="7d933b09d9755ecc-5" edge="1">
          <mxGeometry relative="1" as="geometry">
            <mxPoint x="1092" y="440" as="sourcePoint" />
          </mxGeometry>
        </mxCell>
        <mxCell id="7d933b09d9755ecc-28" value="Request packs" style="edgeStyle=none;rounded=0;html=1;labelBackgroundColor=none;startArrow=none;startFill=0;endArrow=block;endFill=1;strokeWidth=1;fontFamily=Verdana;fontSize=12;exitX=0.805;exitY=0.079;exitDx=0;exitDy=0;exitPerimeter=0;" parent="1" source="7d933b09d9755ecc-15" target="Qp64Jbjv82XY_4rTnFqN-4" edge="1">
          <mxGeometry x="-0.1158" y="5" relative="1" as="geometry">
            <mxPoint as="offset" />
            <mxPoint x="1240" y="590" as="sourcePoint" />
            <mxPoint x="1170" y="580" as="targetPoint" />
          </mxGeometry>
        </mxCell>
        <mxCell id="Qp64Jbjv82XY_4rTnFqN-1" value="&lt;b&gt;Your FoundryVTT&lt;/b&gt;" style="text;html=1;strokeColor=none;fillColor=none;align=center;verticalAlign=middle;whiteSpace=wrap;rounded=0;" vertex="1" parent="1">
          <mxGeometry x="1026" y="513.5" width="40" height="20" as="geometry" />
        </mxCell>
        <mxCell id="Qp64Jbjv82XY_4rTnFqN-5" style="edgeStyle=orthogonalEdgeStyle;rounded=0;orthogonalLoop=1;jettySize=auto;html=1;entryX=1;entryY=0.5;entryDx=0;entryDy=0;" edge="1" parent="1" source="Qp64Jbjv82XY_4rTnFqN-4" target="7d933b09d9755ecc-15">
          <mxGeometry relative="1" as="geometry">
            <Array as="points">
              <mxPoint x="1330" y="654" />
            </Array>
          </mxGeometry>
        </mxCell>
        <mxCell id="Qp64Jbjv82XY_4rTnFqN-6" value="&lt;font style=&quot;font-size: 12px&quot;&gt;Available packs&lt;/font&gt;" style="edgeLabel;html=1;align=center;verticalAlign=middle;resizable=0;points=[];" vertex="1" connectable="0" parent="Qp64Jbjv82XY_4rTnFqN-5">
          <mxGeometry x="0.301" y="-3" relative="1" as="geometry">
            <mxPoint as="offset" />
          </mxGeometry>
        </mxCell>
        <mxCell id="Qp64Jbjv82XY_4rTnFqN-4" value="&lt;b&gt;Moulinette Server&lt;/b&gt;" style="verticalLabelPosition=bottom;aspect=fixed;html=1;verticalAlign=top;strokeColor=none;align=center;outlineConnect=0;shape=mxgraph.citrix.database_server;" vertex="1" parent="1">
          <mxGeometry x="1300" y="400" width="80" height="90" as="geometry" />
        </mxCell>
        <mxCell id="Qp64Jbjv82XY_4rTnFqN-10" value="&lt;b&gt;World Wide Web&lt;/b&gt;" style="verticalLabelPosition=bottom;aspect=fixed;html=1;verticalAlign=top;strokeColor=none;align=center;outlineConnect=0;shape=mxgraph.citrix.cloud;" vertex="1" parent="1">
          <mxGeometry x="780" y="394" width="95" height="62" as="geometry" />
        </mxCell>
        <mxCell id="Qp64Jbjv82XY_4rTnFqN-11" value="Download&lt;br&gt;packs" style="edgeStyle=none;rounded=0;html=1;labelBackgroundColor=none;startArrow=none;startFill=0;endArrow=block;endFill=1;strokeWidth=1;fontFamily=Verdana;fontSize=12;" edge="1" parent="1" source="Qp64Jbjv82XY_4rTnFqN-10" target="7d933b09d9755ecc-15">
          <mxGeometry x="-0.185" y="-19" relative="1" as="geometry">
            <mxPoint as="offset" />
            <mxPoint x="1172.1" y="605.06" as="sourcePoint" />
            <mxPoint x="1310" y="488.74030354131537" as="targetPoint" />
          </mxGeometry>
        </mxCell>
        <mxCell id="Qp64Jbjv82XY_4rTnFqN-13" value="&lt;b style=&quot;font-size: 20px;&quot;&gt;&lt;font style=&quot;font-size: 20px;&quot;&gt;1&lt;/font&gt;&lt;/b&gt;" style="ellipse;whiteSpace=wrap;html=1;aspect=fixed;verticalAlign=bottom;fontSize=20;labelBorderColor=none;fillColor=#f8cecc;strokeColor=#b85450;fontColor=#FF6666;" vertex="1" parent="1">
          <mxGeometry x="1230" y="483.5" width="30" height="30" as="geometry" />
        </mxCell>
        <mxCell id="Qp64Jbjv82XY_4rTnFqN-15" value="2" style="ellipse;whiteSpace=wrap;html=1;aspect=fixed;verticalAlign=bottom;fontSize=20;labelBorderColor=none;fillColor=#f8cecc;strokeColor=#b85450;fontColor=#FF6666;" vertex="1" parent="1">
          <mxGeometry x="1290" y="610" width="30" height="30" as="geometry" />
        </mxCell>
        <mxCell id="Qp64Jbjv82XY_4rTnFqN-16" value="4" style="ellipse;whiteSpace=wrap;html=1;aspect=fixed;verticalAlign=bottom;fontSize=20;labelBorderColor=none;fillColor=#f8cecc;strokeColor=#b85450;fontColor=#FF6666;" vertex="1" parent="1">
          <mxGeometry x="1103" y="539" width="30" height="30" as="geometry" />
        </mxCell>
        <mxCell id="Qp64Jbjv82XY_4rTnFqN-17" value="&lt;b style=&quot;font-size: 20px;&quot;&gt;&lt;font style=&quot;font-size: 20px;&quot;&gt;1&lt;/font&gt;&lt;/b&gt;" style="ellipse;whiteSpace=wrap;html=1;aspect=fixed;verticalAlign=bottom;fontSize=20;labelBorderColor=none;fillColor=#f8cecc;strokeColor=#b85450;fontColor=#FF6666;" vertex="1" parent="1">
          <mxGeometry x="940" y="570" width="30" height="30" as="geometry" />
        </mxCell>
      </root>
    </mxGraphModel>
  </diagram>
</mxfile>
